<svg xmlns="http://www.w3.org/2000/svg" width="305.275" height="80.998" viewBox="0 0 305.275 80.998">
  <g id="Group_23" data-name="Group 23" transform="translate(-613 -319)">
    <path id="Path_5" data-name="Path 5" d="M54.91,12.495,58.975,8.43a2.585,2.585,0,0,0-3.656-3.656L51.254,8.839a2.585,2.585,0,1,0,3.656,3.656" transform="translate(613 319)"/>
    <path id="Path_8" data-name="Path 8" d="M67.325,66.813l-4.76,4.76a2.585,2.585,0,0,0,3.655,3.656l4.761-4.76a2.585,2.585,0,1,0-3.656-3.656" transform="translate(613 319)"/>
    <path id="Path_10" data-name="Path 10" d="M27.7,9.339l4.76-4.76A2.584,2.584,0,1,0,28.805.926l-4.76,4.761A2.585,2.585,0,0,0,27.7,9.342Z" transform="translate(613 319)"/>
    <path id="Path_18" data-name="Path 18" d="M51.239,71.659l-4.76,4.76a2.585,2.585,0,0,0,3.655,3.656l4.761-4.76a2.585,2.585,0,0,0-3.656-3.656" transform="translate(613 319)"/>
    <path id="Path_19" data-name="Path 19" d="M13.02,5.356l-4.76,4.76a2.585,2.585,0,1,0,3.655,3.656l4.761-4.76A2.585,2.585,0,0,0,13.02,5.356" transform="translate(613 319)"/>
    <path id="Path_20" data-name="Path 20" d="M24.026,68.5l-4.065,4.065a2.584,2.584,0,0,0,3.656,3.652l4.061-4.061A2.585,2.585,0,0,0,24.022,68.5Z" transform="translate(613 319)"/>
    <path id="Path_1" data-name="Path 1" d="M59.988,45.66l-3.034,3.034A2.585,2.585,0,1,0,60.61,52.35l3.037-3.038a2.583,2.583,0,1,0-3.655-3.652Z" transform="translate(613 319)"/>
    <path id="Path_2" data-name="Path 2" d="M57.278,67.214a2.58,2.58,0,0,0,3.652,0L78.014,50.13a2.583,2.583,0,0,0-3.655-3.652L57.275,63.562a2.584,2.584,0,0,0,0,3.656Z" transform="translate(613 319)"/>
    <path id="Path_3" data-name="Path 3" d="M44.6,15.5l-5.515,5.515a2.584,2.584,0,0,0,3.656,3.653l5.515-5.516A2.585,2.585,0,0,0,44.6,15.494Z" transform="translate(613 319)"/>
    <path id="Path_4" data-name="Path 4" d="M66.65,39a2.585,2.585,0,0,0,3.656,3.656l7.874-7.875a2.585,2.585,0,0,0-3.656-3.655L66.65,39.006Z" transform="translate(613 319)"/>
    <path id="Path_6" data-name="Path 6" d="M49.275,29.659a2.59,2.59,0,0,0,3.656,0L67.645,14.945a2.585,2.585,0,0,0-3.656-3.656L49.275,26a2.584,2.584,0,0,0,0,3.656" transform="translate(613 319)"/>
    <path id="Path_7" data-name="Path 7" d="M54.271,39.854a2.59,2.59,0,0,0,3.656,0L74.165,23.616a2.585,2.585,0,0,0-3.656-3.656L54.271,36.2a2.584,2.584,0,0,0,0,3.656" transform="translate(613 319)"/>
    <path id="Path_9" data-name="Path 9" d="M24.309,24.259a2.584,2.584,0,0,0,3.656,0L47.813,4.411A2.585,2.585,0,1,0,44.158.755L24.309,20.607a2.584,2.584,0,0,0,0,3.656Z" transform="translate(613 319)"/>
    <path id="Path_11" data-name="Path 11" d="M36.2,56.33l-5.515,5.515A2.585,2.585,0,1,0,34.344,65.5l5.515-5.512A2.585,2.585,0,1,0,36.2,56.334Z" transform="translate(613 319)"/>
    <path id="Path_12" data-name="Path 12" d="M28.142,52.859a2.59,2.59,0,0,0-3.656,0L9.772,67.573a2.584,2.584,0,1,0,3.656,3.653L28.142,56.511a2.58,2.58,0,0,0,0-3.652" transform="translate(613 319)"/>
    <path id="Path_13" data-name="Path 13" d="M4.413,49.875,12.291,42a2.585,2.585,0,0,0-3.656-3.656L.757,46.223a2.584,2.584,0,0,0,3.656,3.652" transform="translate(613 319)"/>
    <path id="Path_14" data-name="Path 14" d="M4.583,34.524,21.667,17.44a2.584,2.584,0,0,0-3.656-3.652L.927,30.872a2.584,2.584,0,0,0,3.656,3.652" transform="translate(613 319)"/>
    <path id="Path_15" data-name="Path 15" d="M18.329,28.649l-3.037,3.037a2.585,2.585,0,1,0,3.656,3.656L21.985,32.3a2.585,2.585,0,0,0-3.656-3.656Z" transform="translate(613 319)"/>
    <path id="Path_16" data-name="Path 16" d="M4.779,57.385a2.585,2.585,0,0,0,3.656,3.656L24.673,44.8a2.585,2.585,0,0,0-3.656-3.656Z" transform="translate(613 319)"/>
    <path id="Path_17" data-name="Path 17" d="M50.979,56.739,31.127,76.588a2.584,2.584,0,0,0,3.656,3.652L54.631,60.391a2.583,2.583,0,0,0-3.655-3.652Z" transform="translate(613 319)"/>
    <text id="_9th_Street" data-name="9th Street" transform="translate(702.296 358.934)" font-size="39.037" font-family="Campton-BoldDEMO, Campton" font-weight="700"><tspan x="0" y="0">9th Street</tspan></text>
    <text id="Developer_Studio" data-name="Developer Studio" transform="translate(702.275 384.894)" font-size="27.884" font-family="Campton-Medium, Campton" font-weight="500" letter-spacing="-0.032em"><tspan x="0" y="0">Developer Studio</tspan></text>
  </g>
</svg>
