<svg xmlns="http://www.w3.org/2000/svg" width="168" height="155.232" viewBox="0 0 168 155.232">
  <g id="Group_19" data-name="Group 19" transform="translate(-960.037 -349.456)">
    <text id="NineMbs" transform="translate(960.037 471.647)" fill="#03ff85" font-size="40" font-family="Campton-BoldDEMO, Campton" font-weight="700"><tspan x="0" y="0">Ni</tspan><tspan y="0" letter-spacing="-0.004em">n</tspan><tspan y="0">eM</tspan><tspan y="0" letter-spacing="-0.002em">b</tspan><tspan y="0">s</tspan></text>
    <text id="Studio_LLC" data-name="Studio LLC" transform="translate(980.037 497.688)" fill="#03ff85" font-size="25" font-family="Campton-Medium, Campton" font-weight="500"><tspan x="0" y="0" letter-spacing="-0.032em">S</tspan><tspan y="0" letter-spacing="-0.019em">tud</tspan><tspan y="0" letter-spacing="-0.025em">i</tspan><tspan y="0" letter-spacing="-0.019em">o </tspan><tspan y="0" letter-spacing="-0.02em">L</tspan><tspan y="0" letter-spacing="-0.062em">L</tspan><tspan y="0">C</tspan></text>
    <g id="Group_8" data-name="Group 8" transform="translate(59.135 239.456)">
      <path id="Path_41" data-name="Path 41" d="M117.026,57.917l-3.095,3.095a2.637,2.637,0,1,0,3.73,3.729l3.1-3.1a2.636,2.636,0,1,0-3.729-3.726Z" transform="translate(888.808 98.66)" fill="#03ff85"/>
      <path id="Path_42" data-name="Path 42" d="M114.342,80.11a2.632,2.632,0,0,0,3.726,0l17.427-17.427a2.636,2.636,0,1,0-3.73-3.726L114.339,76.384a2.636,2.636,0,0,0,0,3.73Z" transform="translate(888.727 98.454)" fill="#03ff85"/>
      <path id="Path_43" data-name="Path 43" d="M96.813,19.531l-5.626,5.626a2.636,2.636,0,0,0,3.73,3.726l5.626-5.627a2.637,2.637,0,0,0-3.73-3.728Z" transform="translate(893.321 106.278)" fill="#03ff85"/>
      <path id="Path_44" data-name="Path 44" d="M126.27,47.455a2.637,2.637,0,1,0,3.73,3.73l8.032-8.033a2.637,2.637,0,0,0-3.73-3.729l-8.032,8.036Z" transform="translate(886.359 102.33)" fill="#03ff85"/>
      <path id="Path_45" data-name="Path 45" d="M110.406,13.761l4.146-4.146a2.637,2.637,0,0,0-3.73-3.73l-4.146,4.146a2.637,2.637,0,0,0,3.73,3.73" transform="translate(890.247 108.986)" fill="#03ff85"/>
      <path id="Path_46" data-name="Path 46" d="M104.159,32.914a2.642,2.642,0,0,0,3.729,0L122.9,17.9a2.637,2.637,0,1,0-3.729-3.729l-15.01,15.009a2.637,2.637,0,0,0,0,3.73" transform="translate(890.747 107.34)" fill="#03ff85"/>
      <path id="Path_47" data-name="Path 47" d="M110.516,45.5a2.643,2.643,0,0,0,3.73,0L130.81,28.941a2.637,2.637,0,1,0-3.73-3.73L110.516,41.775a2.637,2.637,0,0,0,0,3.73" transform="translate(889.485 105.15)" fill="#03ff85"/>
      <path id="Path_48" data-name="Path 48" d="M125.927,84.838l-4.856,4.856a2.637,2.637,0,1,0,3.729,3.73l4.856-4.856a2.637,2.637,0,0,0-3.729-3.73" transform="translate(887.391 93.318)" fill="#03ff85"/>
      <path id="Path_49" data-name="Path 49" d="M72.386,24.746a2.637,2.637,0,0,0,3.73,0L96.362,4.5A2.637,2.637,0,0,0,92.633.77L72.386,21.021a2.637,2.637,0,0,0,0,3.73Z" transform="translate(897.052 110)" fill="#03ff85"/>
      <path id="Path_50" data-name="Path 50" d="M75.779,9.569l4.856-4.856A2.636,2.636,0,0,0,76.906.988L72.051,5.843a2.637,2.637,0,0,0,3.729,3.729Z" transform="translate(897.119 109.957)" fill="#03ff85"/>
      <path id="Path_51" data-name="Path 51" d="M86.13,71.5,80.5,77.124a2.637,2.637,0,0,0,3.73,3.729L89.86,75.23A2.637,2.637,0,1,0,86.13,71.5Z" transform="translate(895.441 95.964)" fill="#03ff85"/>
      <path id="Path_52" data-name="Path 52" d="M72.625,67.079a2.643,2.643,0,0,0-3.73,0L53.886,82.089a2.636,2.636,0,0,0,3.729,3.726L72.625,70.8a2.631,2.631,0,0,0,0-3.726" transform="translate(900.723 96.841)" fill="#03ff85"/>
      <path id="Path_53" data-name="Path 53" d="M46.142,60.369l8.036-8.032a2.637,2.637,0,0,0-3.73-3.73l-8.036,8.036a2.636,2.636,0,0,0,3.73,3.726" transform="translate(903 100.507)" fill="#03ff85"/>
      <path id="Path_54" data-name="Path 54" d="M46.358,38.509,63.785,21.081a2.636,2.636,0,0,0-3.729-3.726L42.629,34.783a2.636,2.636,0,0,0,3.73,3.726" transform="translate(902.957 106.709)" fill="#03ff85"/>
      <path id="Path_55" data-name="Path 55" d="M64.009,36.268l-3.1,3.1a2.637,2.637,0,0,0,3.729,3.73l3.1-3.1a2.637,2.637,0,0,0-3.73-3.73Z" transform="translate(899.329 102.956)" fill="#03ff85"/>
      <path id="Path_56" data-name="Path 56" d="M47.532,68.738a2.637,2.637,0,0,0,3.73,3.73L67.826,55.9a2.637,2.637,0,0,0-3.73-3.73Z" transform="translate(901.984 99.8)" fill="#03ff85"/>
      <path id="Path_57" data-name="Path 57" d="M101.314,72.017,81.064,92.264a2.636,2.636,0,0,0,3.729,3.726L105.04,75.742a2.636,2.636,0,0,0-3.729-3.726Z" transform="translate(895.33 95.862)" fill="#03ff85"/>
      <path id="Path_58" data-name="Path 58" d="M105.455,91,100.6,95.861a2.637,2.637,0,0,0,3.729,3.73l4.856-4.856A2.637,2.637,0,0,0,105.455,91" transform="translate(891.453 92.094)" fill="#03ff85"/>
      <path id="Path_59" data-name="Path 59" d="M56.817,6.625l-4.856,4.856a2.637,2.637,0,0,0,3.729,3.73l4.856-4.856a2.637,2.637,0,1,0-3.729-3.73" transform="translate(901.105 108.839)" fill="#03ff85"/>
      <path id="Path_60" data-name="Path 60" d="M71,86.988l-4.146,4.146a2.636,2.636,0,0,0,3.73,3.726l4.142-4.142A2.637,2.637,0,0,0,71,86.988Z" transform="translate(898.15 92.891)" fill="#03ff85"/>
    </g>
    <g id="Group_13" data-name="Group 13" transform="translate(59.135 239.456)">
      <path id="Path_41-2" data-name="Path 41" d="M117.026,57.917l-3.095,3.095a2.637,2.637,0,1,0,3.73,3.729l3.1-3.1a2.636,2.636,0,1,0-3.729-3.726Z" transform="translate(888.808 98.66)" fill="#03ff85"/>
      <path id="Path_42-2" data-name="Path 42" d="M114.342,80.11a2.632,2.632,0,0,0,3.726,0l17.427-17.427a2.636,2.636,0,1,0-3.73-3.726L114.339,76.384a2.636,2.636,0,0,0,0,3.73Z" transform="translate(888.727 98.454)" fill="#03ff85"/>
      <path id="Path_43-2" data-name="Path 43" d="M96.813,19.531l-5.626,5.626a2.636,2.636,0,0,0,3.73,3.726l5.626-5.627a2.637,2.637,0,0,0-3.73-3.728Z" transform="translate(893.321 106.278)" fill="#03ff85"/>
      <path id="Path_44-2" data-name="Path 44" d="M126.27,47.455a2.637,2.637,0,1,0,3.73,3.73l8.032-8.033a2.637,2.637,0,0,0-3.73-3.729l-8.032,8.036Z" transform="translate(886.359 102.33)" fill="#03ff85"/>
      <path id="Path_45-2" data-name="Path 45" d="M110.406,13.761l4.146-4.146a2.637,2.637,0,0,0-3.73-3.73l-4.146,4.146a2.637,2.637,0,0,0,3.73,3.73" transform="translate(890.247 108.986)" fill="#03ff85"/>
      <path id="Path_46-2" data-name="Path 46" d="M104.159,32.914a2.642,2.642,0,0,0,3.729,0L122.9,17.9a2.637,2.637,0,1,0-3.729-3.729l-15.01,15.009a2.637,2.637,0,0,0,0,3.73" transform="translate(890.747 107.34)" fill="#03ff85"/>
      <path id="Path_47-2" data-name="Path 47" d="M110.516,45.5a2.643,2.643,0,0,0,3.73,0L130.81,28.941a2.637,2.637,0,1,0-3.73-3.73L110.516,41.775a2.637,2.637,0,0,0,0,3.73" transform="translate(889.485 105.15)" fill="#03ff85"/>
      <path id="Path_48-2" data-name="Path 48" d="M125.927,84.838l-4.856,4.856a2.637,2.637,0,1,0,3.729,3.73l4.856-4.856a2.637,2.637,0,0,0-3.729-3.73" transform="translate(887.391 93.318)" fill="#03ff85"/>
      <path id="Path_49-2" data-name="Path 49" d="M72.386,24.746a2.637,2.637,0,0,0,3.73,0L96.362,4.5A2.637,2.637,0,0,0,92.633.77L72.386,21.021a2.637,2.637,0,0,0,0,3.73Z" transform="translate(897.052 110)" fill="#03ff85"/>
      <path id="Path_50-2" data-name="Path 50" d="M75.779,9.569l4.856-4.856A2.636,2.636,0,0,0,76.906.988L72.051,5.843a2.637,2.637,0,0,0,3.729,3.729Z" transform="translate(897.119 109.957)" fill="#03ff85"/>
      <path id="Path_51-2" data-name="Path 51" d="M86.13,71.5,80.5,77.124a2.637,2.637,0,0,0,3.73,3.729L89.86,75.23A2.637,2.637,0,1,0,86.13,71.5Z" transform="translate(895.441 95.964)" fill="#03ff85"/>
      <path id="Path_52-2" data-name="Path 52" d="M72.625,67.079a2.643,2.643,0,0,0-3.73,0L53.886,82.089a2.636,2.636,0,0,0,3.729,3.726L72.625,70.8a2.631,2.631,0,0,0,0-3.726" transform="translate(900.723 96.841)" fill="#03ff85"/>
      <path id="Path_53-2" data-name="Path 53" d="M46.142,60.369l8.036-8.032a2.637,2.637,0,0,0-3.73-3.73l-8.036,8.036a2.636,2.636,0,0,0,3.73,3.726" transform="translate(903 100.507)" fill="#03ff85"/>
      <path id="Path_54-2" data-name="Path 54" d="M46.358,38.509,63.785,21.081a2.636,2.636,0,0,0-3.729-3.726L42.629,34.783a2.636,2.636,0,0,0,3.73,3.726" transform="translate(902.957 106.709)" fill="#03ff85"/>
      <path id="Path_55-2" data-name="Path 55" d="M64.009,36.268l-3.1,3.1a2.637,2.637,0,0,0,3.729,3.73l3.1-3.1a2.637,2.637,0,0,0-3.73-3.73Z" transform="translate(899.329 102.956)" fill="#03ff85"/>
      <path id="Path_56-2" data-name="Path 56" d="M47.532,68.738a2.637,2.637,0,0,0,3.73,3.73L67.826,55.9a2.637,2.637,0,0,0-3.73-3.73Z" transform="translate(901.984 99.8)" fill="#03ff85"/>
      <path id="Path_57-2" data-name="Path 57" d="M101.314,72.017,81.064,92.264a2.636,2.636,0,0,0,3.729,3.726L105.04,75.742a2.636,2.636,0,0,0-3.729-3.726Z" transform="translate(895.33 95.862)" fill="#03ff85"/>
      <path id="Path_58-2" data-name="Path 58" d="M105.455,91,100.6,95.861a2.637,2.637,0,0,0,3.729,3.73l4.856-4.856A2.637,2.637,0,0,0,105.455,91" transform="translate(891.453 92.094)" fill="#03ff85"/>
      <path id="Path_59-2" data-name="Path 59" d="M56.817,6.625l-4.856,4.856a2.637,2.637,0,0,0,3.729,3.73l4.856-4.856a2.637,2.637,0,1,0-3.729-3.73" transform="translate(901.105 108.839)" fill="#03ff85"/>
      <path id="Path_60-2" data-name="Path 60" d="M71,86.988l-4.146,4.146a2.636,2.636,0,0,0,3.73,3.726l4.142-4.142A2.637,2.637,0,0,0,71,86.988Z" transform="translate(898.15 92.891)" fill="#03ff85"/>
    </g>
    <g id="Group_10" data-name="Group 10" transform="translate(59.135 239.456)">
      <path id="Path_41-3" data-name="Path 41" d="M117.026,57.917l-3.095,3.095a2.637,2.637,0,1,0,3.73,3.729l3.1-3.1a2.636,2.636,0,1,0-3.729-3.726Z" transform="translate(888.808 98.66)" fill="#03ff85"/>
      <path id="Path_42-3" data-name="Path 42" d="M114.342,80.11a2.632,2.632,0,0,0,3.726,0l17.427-17.427a2.636,2.636,0,1,0-3.73-3.726L114.339,76.384a2.636,2.636,0,0,0,0,3.73Z" transform="translate(888.727 98.454)" fill="#03ff85"/>
      <path id="Path_43-3" data-name="Path 43" d="M96.813,19.531l-5.626,5.626a2.636,2.636,0,0,0,3.73,3.726l5.626-5.627a2.637,2.637,0,0,0-3.73-3.728Z" transform="translate(893.321 106.278)" fill="#03ff85"/>
      <path id="Path_44-3" data-name="Path 44" d="M126.27,47.455a2.637,2.637,0,1,0,3.73,3.73l8.032-8.033a2.637,2.637,0,0,0-3.73-3.729l-8.032,8.036Z" transform="translate(886.359 102.33)" fill="#03ff85"/>
      <path id="Path_45-3" data-name="Path 45" d="M110.406,13.761l4.146-4.146a2.637,2.637,0,0,0-3.73-3.73l-4.146,4.146a2.637,2.637,0,0,0,3.73,3.73" transform="translate(890.247 108.986)" fill="#03ff85"/>
      <path id="Path_46-3" data-name="Path 46" d="M104.159,32.914a2.642,2.642,0,0,0,3.729,0L122.9,17.9a2.637,2.637,0,1,0-3.729-3.729l-15.01,15.009a2.637,2.637,0,0,0,0,3.73" transform="translate(890.747 107.34)" fill="#03ff85"/>
      <path id="Path_47-3" data-name="Path 47" d="M110.516,45.5a2.643,2.643,0,0,0,3.73,0L130.81,28.941a2.637,2.637,0,1,0-3.73-3.73L110.516,41.775a2.637,2.637,0,0,0,0,3.73" transform="translate(889.485 105.15)" fill="#03ff85"/>
      <path id="Path_48-3" data-name="Path 48" d="M125.927,84.838l-4.856,4.856a2.637,2.637,0,1,0,3.729,3.73l4.856-4.856a2.637,2.637,0,0,0-3.729-3.73" transform="translate(887.391 93.318)" fill="#03ff85"/>
      <path id="Path_49-3" data-name="Path 49" d="M72.386,24.746a2.637,2.637,0,0,0,3.73,0L96.362,4.5A2.637,2.637,0,0,0,92.633.77L72.386,21.021a2.637,2.637,0,0,0,0,3.73Z" transform="translate(897.052 110)" fill="#03ff85"/>
      <path id="Path_50-3" data-name="Path 50" d="M75.779,9.569l4.856-4.856A2.636,2.636,0,0,0,76.906.988L72.051,5.843a2.637,2.637,0,0,0,3.729,3.729Z" transform="translate(897.119 109.957)" fill="#03ff85"/>
      <path id="Path_51-3" data-name="Path 51" d="M86.13,71.5,80.5,77.124a2.637,2.637,0,0,0,3.73,3.729L89.86,75.23A2.637,2.637,0,1,0,86.13,71.5Z" transform="translate(895.441 95.964)" fill="#03ff85"/>
      <path id="Path_52-3" data-name="Path 52" d="M72.625,67.079a2.643,2.643,0,0,0-3.73,0L53.886,82.089a2.636,2.636,0,0,0,3.729,3.726L72.625,70.8a2.631,2.631,0,0,0,0-3.726" transform="translate(900.723 96.841)" fill="#03ff85"/>
      <path id="Path_53-3" data-name="Path 53" d="M46.142,60.369l8.036-8.032a2.637,2.637,0,0,0-3.73-3.73l-8.036,8.036a2.636,2.636,0,0,0,3.73,3.726" transform="translate(903 100.507)" fill="#03ff85"/>
      <path id="Path_54-3" data-name="Path 54" d="M46.358,38.509,63.785,21.081a2.636,2.636,0,0,0-3.729-3.726L42.629,34.783a2.636,2.636,0,0,0,3.73,3.726" transform="translate(902.957 106.709)" fill="#03ff85"/>
      <path id="Path_55-3" data-name="Path 55" d="M64.009,36.268l-3.1,3.1a2.637,2.637,0,0,0,3.729,3.73l3.1-3.1a2.637,2.637,0,0,0-3.73-3.73Z" transform="translate(899.329 102.956)" fill="#03ff85"/>
      <path id="Path_56-3" data-name="Path 56" d="M47.532,68.738a2.637,2.637,0,0,0,3.73,3.73L67.826,55.9a2.637,2.637,0,0,0-3.73-3.73Z" transform="translate(901.984 99.8)" fill="#03ff85"/>
      <path id="Path_57-3" data-name="Path 57" d="M101.314,72.017,81.064,92.264a2.636,2.636,0,0,0,3.729,3.726L105.04,75.742a2.636,2.636,0,0,0-3.729-3.726Z" transform="translate(895.33 95.862)" fill="#03ff85"/>
      <path id="Path_58-3" data-name="Path 58" d="M105.455,91,100.6,95.861a2.637,2.637,0,0,0,3.729,3.73l4.856-4.856A2.637,2.637,0,0,0,105.455,91" transform="translate(891.453 92.094)" fill="#03ff85"/>
      <path id="Path_59-3" data-name="Path 59" d="M56.817,6.625l-4.856,4.856a2.637,2.637,0,0,0,3.729,3.73l4.856-4.856a2.637,2.637,0,1,0-3.729-3.73" transform="translate(901.105 108.839)" fill="#03ff85"/>
      <path id="Path_60-3" data-name="Path 60" d="M71,86.988l-4.146,4.146a2.636,2.636,0,0,0,3.73,3.726l4.142-4.142A2.637,2.637,0,0,0,71,86.988Z" transform="translate(898.15 92.891)" fill="#03ff85"/>
    </g>
  </g>
</svg>
